<?xml version="1.0" standalone="no"?>
<!DOCTYPE svg PUBLIC "-//W3C//DTD SVG 20010904//EN"
 "http://www.w3.org/TR/2001/REC-SVG-20010904/DTD/svg10.dtd">
<svg version="1.0" xmlns="http://www.w3.org/2000/svg"
 width="11.100000pt" height="11.100000pt" viewBox="0 0 11.100000 11.100000"
 preserveAspectRatio="xMidYMid meet">
<metadata>
Created by potrace 1.16, written by Peter Selinger 2001-2019
</metadata>
<g transform="translate(0.000000,11.100000) scale(0.001028,-0.001028)"
fill="#000000" stroke="none">
<path d="M0 5400 l0 -5400 5400 0 5400 0 0 5400 0 5400 -5400 0 -5400 0 0
-5400z m5261 3484 l32 -47 -7 -197 -7 -198 31 -7 c17 -4 34 -4 37 -1 3 3 10
72 16 153 5 82 11 150 13 152 4 5 26 -18 54 -59 13 -19 27 -37 30 -40 12 -11
219 -289 230 -310 12 -22 12 -22 -36 -15 -27 4 -86 10 -130 14 l-81 6 -7 -105
c-20 -355 -20 -470 3 -455 5 3 37 7 71 10 34 2 68 9 76 16 11 9 14 8 15 -2 0
-10 2 -11 6 -1 2 6 12 12 20 12 11 0 14 7 9 24 -5 20 -2 24 19 24 14 0 25 -4
25 -9 0 -5 -4 -9 -10 -9 -5 0 -10 -5 -10 -11 0 -13 53 -2 58 12 2 5 12 9 23 9
24 0 25 17 2 23 -10 2 -1 2 19 0 28 -4 40 -1 44 11 3 9 12 16 18 16 13 0 126
104 126 115 0 4 9 18 20 33 27 34 60 146 70 235 l7 72 2 -74 c2 -108 -41 -231
-105 -300 -13 -14 -24 -28 -24 -31 0 -11 -128 -100 -143 -100 -9 0 -19 -4 -22
-10 -15 -24 -148 -66 -245 -77 -106 -13 -278 -9 -293 6 -10 11 -3 12 38 6 47
-7 155 -8 162 -1 2 1 -17 34 -42 71 -52 79 -52 82 -35 339 6 82 9 150 7 152
-2 2 -17 7 -35 10 -29 6 -31 4 -36 -27 -3 -19 -8 -91 -12 -161 -3 -71 -9 -128
-13 -128 -3 0 -21 22 -38 48 -18 26 -82 112 -143 192 -60 80 -110 151 -110
158 0 9 30 12 115 12 63 0 115 3 116 8 0 4 2 39 5 77 2 39 9 131 14 205 6 74
10 150 10 168 0 17 2 32 5 32 2 0 18 -21 36 -46z m-62 -2186 c27 0 54 2 58 5
18 12 135 18 128 7 -5 -8 30 -28 55 -32 10 -2 156 -112 190 -143 22 -21 50
-35 75 -40 25 -4 46 -14 54 -27 11 -18 6 -26 -58 -89 -78 -75 -92 -100 -83
-144 4 -25 6 -26 12 -10 5 14 17 19 48 21 23 1 44 -2 47 -7 3 -5 22 -16 41
-25 33 -16 36 -16 52 1 13 13 14 19 5 22 -27 10 -4 98 28 106 15 4 19 0 19
-19 0 -27 22 -65 58 -101 17 -18 35 -23 82 -25 70 -3 98 14 145 84 l31 46 49
-27 c67 -37 78 -67 40 -110 -16 -17 -34 -31 -42 -31 -7 0 -13 -4 -13 -10 0 -5
9 -10 20 -10 11 0 20 4 20 9 0 5 12 12 27 16 15 3 39 15 54 26 15 10 32 19 38
19 6 0 11 4 11 10 0 5 6 7 14 4 8 -3 17 -1 21 5 3 6 15 11 26 11 26 0 24 13
-8 51 l-27 32 29 -5 c20 -4 37 0 54 13 13 10 32 19 42 19 11 0 19 5 19 10 0 6
11 10 25 10 14 0 25 -4 25 -10 0 -5 -5 -10 -12 -10 -6 0 -9 -3 -6 -6 4 -3 20
2 37 11 17 9 37 15 44 14 26 -3 37 2 37 16 0 8 9 15 20 15 11 0 20 -6 20 -12
0 -7 9 2 20 20 11 17 24 32 30 32 5 0 10 12 11 28 1 24 3 23 14 -13 8 -22 14
-51 14 -65 2 -48 15 -55 52 -29 19 12 36 26 39 30 9 13 60 29 90 29 18 0 34
-8 44 -22 19 -27 21 -58 4 -58 -15 0 -58 -40 -58 -53 0 -6 8 -19 18 -30 28
-31 41 -171 25 -271 -7 -44 -17 -92 -22 -106 -5 -14 -17 -77 -26 -140 -8 -63
-24 -164 -35 -225 -11 -60 -22 -132 -25 -160 -7 -57 -36 -124 -65 -150 -18
-16 -20 -17 -20 -2 0 10 -5 17 -10 17 -7 0 -7 7 1 21 6 12 9 31 7 44 -3 14 2
26 14 34 11 7 18 22 17 39 -1 15 -3 20 -6 10 -5 -18 -33 -33 -33 -18 0 6 5 10
10 10 6 0 10 18 10 40 0 29 4 38 14 34 18 -7 27 40 15 76 -7 18 -5 44 7 86 17
63 28 204 19 242 -11 44 -23 12 -29 -76 -4 -48 -11 -112 -17 -142 -5 -30 -11
-68 -13 -85 -2 -16 -8 -41 -13 -55 -9 -22 -20 -79 -54 -272 -5 -32 -23 -86
-39 -120 -16 -35 -44 -124 -61 -198 -17 -74 -36 -151 -41 -170 -5 -19 -9 -51
-9 -70 0 -19 -2 -29 -5 -22 -7 16 -24 15 -24 -2 0 -7 -13 -40 -30 -72 -16 -32
-30 -67 -30 -76 0 -10 -9 -22 -19 -28 -11 -5 -22 -23 -26 -40 -4 -17 -11 -28
-16 -24 -5 3 -7 10 -4 15 4 5 -1 9 -9 9 -9 0 -18 -13 -22 -35 -3 -19 -10 -32
-16 -29 -5 3 -20 -2 -34 -11 -19 -12 -23 -22 -19 -38 4 -15 3 -18 -3 -9 -7 10
-11 10 -22 -3 -10 -12 -10 -18 0 -30 10 -13 9 -15 -10 -15 -14 0 -20 5 -17 13
3 8 1 20 -4 28 -6 10 -9 7 -9 -11 0 -29 -25 -70 -43 -70 -7 0 -27 16 -46 35
-23 25 -28 35 -17 35 9 0 16 5 16 10 0 6 -15 8 -37 4 l-38 -6 -3 42 c-1 23 2
47 7 54 5 6 8 24 7 39 -2 15 3 32 10 38 8 6 14 21 13 33 0 11 -3 15 -6 9 -8
-22 -20 -14 -27 18 -3 18 -2 37 4 44 5 6 7 15 4 18 -3 3 1 16 10 28 13 20 16
20 22 6 9 -23 24 -21 24 3 0 11 -4 20 -10 20 -5 0 -10 13 -10 30 0 30 -18 80
-33 91 -4 3 -7 10 -6 15 1 5 0 12 -1 17 -1 4 -3 10 -4 15 -1 4 -9 18 -19 32
-14 20 -17 21 -17 6 0 -11 -5 -16 -12 -13 -46 19 -68 33 -68 43 0 7 -10 14
-21 17 -13 4 -19 11 -16 19 2 8 -6 19 -20 25 -22 10 -23 10 -17 -9 5 -17 3
-19 -15 -13 -16 5 -20 3 -15 -9 3 -9 3 -16 -2 -16 -13 0 -54 43 -54 57 0 7 -6
13 -14 13 -7 0 -26 6 -41 14 -15 8 -33 12 -40 10 -7 -3 -16 5 -19 18 -5 15 -9
18 -13 10 -4 -10 -9 -8 -19 7 -8 11 -24 21 -37 23 -16 2 -21 9 -19 23 2 15 -2
13 -17 -9 l-20 -30 -12 27 c-14 31 -27 34 -36 11 -5 -15 -7 -15 -15 0 -12 22
-35 20 -48 -3 -8 -17 -15 -18 -42 -10 -78 22 -108 3 -108 -69 l-1 -47 -19 24
c-11 12 -17 27 -14 32 3 5 0 9 -7 9 -10 0 -10 3 -1 12 7 7 12 21 11 32 0 20
-1 20 -16 -1 -19 -28 -33 -30 -26 -3 4 16 0 20 -18 20 -18 0 -20 3 -11 12 7 7
12 14 12 17 0 4 -40 6 -90 5 -49 0 -90 3 -90 8 0 14 -21 9 -48 -12 -16 -13
-28 -17 -32 -10 -4 6 -14 2 -28 -10 -11 -11 -28 -20 -36 -20 -9 0 -13 -6 -10
-14 4 -11 -3 -12 -41 -4 -38 8 -49 7 -64 -6 -9 -9 -33 -18 -52 -22 -27 -4 -31
-3 -16 6 31 20 18 30 -30 23 -27 -3 -59 -14 -72 -25 -14 -10 -40 -18 -62 -18
-22 0 -39 -4 -39 -9 0 -5 -6 -11 -14 -13 -8 -2 -45 -32 -81 -67 -56 -54 -64
-66 -50 -74 15 -8 15 -10 0 -27 -19 -21 -32 -90 -17 -90 7 0 9 -17 5 -50 -6
-48 9 -107 30 -121 16 -11 -3 -49 -29 -55 -13 -3 -24 -10 -24 -15 0 -12 7 -11
31 1 15 9 19 7 19 -6 0 -9 -9 -18 -20 -21 -11 -3 -20 -11 -20 -18 0 -32 -93
-77 -104 -49 -3 8 -13 14 -21 14 -9 0 -13 5 -10 10 3 6 1 10 -4 10 -6 0 -11 6
-11 13 0 8 -9 22 -20 32 -11 10 -18 21 -15 23 3 3 -14 24 -38 46 -24 23 -53
56 -66 74 -12 17 -30 32 -40 32 -13 0 -22 13 -31 48 -8 26 -16 49 -19 52 -3 3
-17 39 -32 81 -22 69 -24 81 -12 114 11 31 10 40 -3 61 -9 13 -14 31 -10 39 3
9 -3 25 -14 37 -11 12 -22 38 -26 57 -3 20 -10 50 -14 66 -5 17 -14 50 -21 75
-7 25 -19 52 -26 61 -7 9 -16 45 -18 80 -8 93 -15 129 -26 129 -12 0 0 73 12
78 12 5 12 69 0 76 -5 3 -11 16 -14 28 -2 13 -8 31 -12 41 -5 13 -2 17 14 17
19 0 20 2 10 23 -7 12 -20 28 -31 35 -10 7 -18 24 -18 37 0 13 -5 36 -10 51
-6 15 -8 30 -4 33 4 3 9 0 11 -7 6 -15 23 -6 23 14 0 8 -9 14 -19 14 -22 0
-36 16 -22 24 6 4 6 19 1 39 -5 17 -11 65 -14 106 -5 61 -3 78 10 93 10 10 14
18 10 18 -4 0 6 14 22 30 17 17 37 30 46 30 8 0 17 4 20 9 6 8 32 14 120 28
21 3 56 0 77 -7 38 -13 39 -14 33 -54 -4 -23 -11 -47 -17 -54 -7 -9 -6 -20 3
-37 11 -20 21 -25 52 -25 22 0 37 -4 34 -8 -9 -14 8 -28 77 -61 37 -18 67 -36
67 -41 0 -5 79 -8 175 -8 96 1 175 4 175 8 0 7 71 40 87 40 6 0 16 7 23 15 7
8 17 12 23 8 5 -3 15 0 21 8 18 22 54 39 71 33 10 -4 15 0 15 10 0 9 8 16 18
16 9 0 34 9 55 20 l37 20 0 -35 c0 -35 -35 -85 -59 -85 -5 0 -16 -20 -24 -45
-9 -24 -27 -56 -41 -70 -32 -31 -34 -55 -6 -48 11 3 23 9 26 14 11 18 44 9 44
-11 0 -13 9 -22 28 -26 15 -3 33 -7 40 -10 14 -4 17 -64 3 -64 -5 0 -5 -15 1
-34 9 -28 8 -37 -6 -51 -9 -9 -16 -29 -16 -45 0 -16 -4 -32 -10 -35 -5 -3 -10
-17 -10 -30 0 -13 -6 -30 -13 -37 -7 -7 -24 -29 -37 -48 -13 -19 -27 -37 -30
-40 -16 -14 -79 -109 -93 -140 -39 -88 -41 -105 -21 -146 21 -44 40 -52 127
-53 58 -1 117 -22 117 -42 0 -6 5 -7 10 -4 6 3 10 19 10 34 0 20 -7 31 -25 39
-14 6 -25 18 -25 27 0 18 -20 21 -20 3 -1 -8 -6 -6 -14 4 -7 10 -15 15 -18 12
-4 -3 -9 -1 -13 5 -3 6 -1 11 5 11 7 0 6 5 -2 14 -7 8 -17 13 -23 13 -6 -1
-10 29 -10 75 1 64 5 83 23 107 12 17 22 35 22 40 0 13 67 81 79 81 20 0 81
65 81 85 0 29 21 87 37 103 7 7 13 22 13 32 0 10 6 20 13 23 9 3 9 7 -2 20 -7
9 -11 26 -8 37 3 13 -2 25 -16 35 -18 12 -19 18 -9 40 9 19 19 25 43 25 25 0
29 3 20 13 -8 10 -5 26 14 65 14 29 25 55 25 59 0 5 11 31 25 58 25 52 32 99
15 110 -5 3 -10 15 -10 26 0 11 -14 34 -30 51 -17 16 -44 50 -61 75 -22 32
-45 51 -78 65 -25 10 -53 23 -62 28 -9 5 -20 6 -23 3 -10 -10 -7 -43 4 -43 6
0 10 -7 10 -15 0 -8 6 -15 13 -15 35 0 71 -137 43 -165 -13 -14 -20 -11 -57
30 -52 56 -131 104 -225 136 -107 36 -310 29 -449 -16 -19 -6 -19 -6 -2 8 9 8
17 26 17 41 0 14 5 26 10 26 6 0 10 6 10 13 0 15 55 37 94 37 16 0 54 6 85 14
31 8 117 19 191 26 98 8 159 19 223 41 49 16 97 29 108 29 10 0 19 5 19 11 0
8 4 8 14 0 8 -7 37 -12 65 -13z m-346 -358 c5 0 5 5 2 10 -3 6 0 10 7 10 14 0
78 -56 78 -69 0 -4 -16 -15 -35 -24 -19 -9 -35 -21 -35 -27 0 -5 -6 -10 -12
-10 -7 0 -35 -12 -63 -25 -27 -14 -43 -24 -35 -22 8 2 40 10 70 17 30 7 71 19
92 27 65 27 63 8 -3 -25 -60 -30 -122 -50 -179 -57 -14 -2 -33 -6 -42 -10 -11
-4 -18 -3 -18 4 0 7 7 14 15 17 20 8 19 24 0 24 -9 0 -18 -7 -22 -16 -4 -11
-8 -12 -13 -4 -5 8 -17 9 -43 2 -35 -10 -127 -5 -137 7 -3 4 -17 12 -32 18
-30 14 -38 47 -13 57 9 3 12 12 8 22 -9 24 24 46 48 33 11 -5 19 -16 19 -24 0
-18 43 -61 82 -81 83 -43 215 46 207 140 -4 56 0 61 24 33 12 -15 26 -27 30
-27z m519 -1450 c3 -34 2 -35 -28 -32 -25 3 -36 -3 -53 -24 -28 -36 -14 -52
30 -33 25 10 34 10 37 1 6 -18 22 -4 23 21 1 21 2 19 15 -21 3 -10 9 -10 24
-2 13 7 20 7 20 0 0 -5 9 -10 19 -10 11 0 23 -5 26 -11 4 -6 13 -8 21 -5 8 3
14 -1 14 -9 0 -8 9 -15 19 -15 23 0 36 16 21 25 -23 14 -8 24 18 11 15 -8 45
-15 67 -17 37 -4 41 -1 56 29 16 31 17 31 23 10 6 -23 7 -23 21 -4 15 19 15
19 15 -2 0 -12 -4 -22 -10 -22 -5 0 -10 -4 -10 -10 0 -5 7 -10 15 -10 8 0 15
6 15 13 0 8 9 22 20 32 25 22 26 9 3 -18 -17 -19 -17 -20 5 -14 19 4 22 2 16
-15 -5 -17 -3 -19 17 -13 18 6 21 4 16 -9 -7 -19 -6 -19 29 -6 21 8 29 8 36
-2 6 -10 8 -10 8 0 0 21 16 13 29 -14 15 -35 0 -54 -44 -54 -18 0 -38 -7 -45
-15 -7 -8 -20 -15 -29 -15 -9 0 -25 -6 -36 -13 -15 -10 -61 -13 -185 -12 -165
2 -215 9 -188 26 9 6 9 9 1 9 -6 0 -15 -4 -18 -10 -14 -22 -43 -10 -50 20 -7
31 -20 39 -28 18 -4 -9 -8 -9 -14 -3 -9 11 -53 18 -53 9 0 -3 5 -14 10 -25 9
-16 7 -19 -8 -19 -10 0 -23 5 -30 12 -9 9 -12 8 -12 -4 0 -21 -27 -30 -51 -18
-11 6 -23 8 -28 5 -13 -8 -111 15 -111 26 0 5 -7 9 -15 9 -15 0 -24 14 -29 44
-1 8 -5 18 -8 22 -10 9 -46 -14 -51 -33 -3 -15 -4 -14 -4 2 -1 35 -4 40 -13
20 -7 -19 -8 -19 -18 6 -11 28 -41 46 -51 31 -9 -14 -47 -20 -62 -11 -11 7
-11 9 3 9 9 0 18 5 20 12 5 14 86 39 93 27 8 -12 137 0 161 16 12 8 25 10 30
6 15 -14 92 -22 99 -11 4 6 10 8 15 5 17 -10 56 18 98 72 24 30 41 57 38 61
-4 3 -12 0 -18 -6 -15 -15 -38 -16 -38 -2 0 5 15 16 33 23 30 13 33 12 44 -7
6 -12 13 -37 15 -56z m-696 -221 c10 -12 35 -30 56 -40 20 -10 38 -22 40 -26
6 -15 83 -62 105 -66 13 -2 26 -6 29 -10 15 -15 34 -6 34 16 0 34 42 51 87 36
21 -7 61 -9 101 -5 179 16 223 18 234 9 7 -5 33 -8 58 -6 25 2 117 4 205 4
103 0 178 5 210 14 70 19 120 16 164 -8 34 -20 37 -26 37 -67 0 -25 6 -55 12
-67 15 -27 15 -60 1 -69 -6 -3 -8 -17 -4 -31 4 -16 -1 -37 -15 -60 -18 -30
-19 -40 -9 -75 12 -46 7 -68 -17 -68 -10 0 -14 -5 -10 -15 3 -8 0 -28 -7 -43
-10 -25 -16 -28 -35 -21 -16 6 -22 5 -22 -6 0 -21 -9 -19 -30 8 -10 12 -22 18
-27 13 -4 -5 -2 -11 5 -13 6 -3 12 -12 12 -20 0 -13 -3 -13 -15 -3 -13 10 -15
9 -15 -8 0 -15 -5 -20 -15 -16 -8 4 -15 1 -15 -6 0 -9 -7 -7 -20 5 -29 26 -36
11 -11 -23 31 -44 26 -48 -15 -12 -24 21 -39 28 -44 21 -4 -7 -15 -9 -25 -5
-14 6 -16 4 -10 -7 4 -8 -5 -1 -20 14 -15 16 -33 26 -41 23 -8 -3 -14 0 -14 7
0 7 -8 17 -18 24 -17 10 -18 8 -14 -14 3 -18 1 -24 -7 -19 -6 4 -11 12 -11 17
0 12 -51 58 -65 59 -5 0 3 -11 18 -25 29 -28 41 -79 12 -55 -8 7 -15 9 -15 5
0 -4 -7 -2 -15 5 -13 11 -15 7 -15 -26 l-1 -39 -19 55 c-11 30 -19 56 -20 58
0 1 9 -2 19 -8 30 -16 35 -12 17 15 -15 22 -15 25 -1 25 9 0 18 6 21 14 3 8
15 17 27 20 21 5 21 6 3 19 -11 8 -21 25 -23 38 -2 13 -10 27 -18 32 -9 4 -13
13 -10 18 4 5 11 7 16 4 5 -4 9 -2 9 3 0 19 -32 24 -215 34 -11 1 -39 1 -62 0
-41 -2 -42 -3 -48 -45 -7 -45 -24 -59 -104 -82 -40 -12 -6 -29 55 -29 30 1 53
-2 52 -6 -9 -23 -111 -118 -132 -124 -30 -7 -34 1 -8 20 15 12 13 13 -21 14
-23 0 -36 4 -32 10 3 6 2 10 -3 10 -6 0 -12 -6 -15 -14 -3 -8 -25 -16 -49 -19
-24 -3 -68 -12 -98 -21 l-54 -16 -21 25 c-13 17 -32 26 -55 27 -19 1 -42 9
-50 17 -13 13 -13 14 2 9 12 -5 18 0 23 19 8 32 -1 41 -25 25 -25 -16 -30 -15
-30 3 0 9 6 12 15 9 22 -9 19 22 -6 57 -11 16 -26 29 -33 29 -20 0 -16 38 5
43 19 5 19 7 5 34 -9 19 -11 34 -6 44 12 18 10 99 -2 99 -9 0 -5 41 10 125 5
29 3 45 -7 57 -14 16 -15 16 -27 0 -12 -16 -13 -15 -13 3 0 11 5 28 13 37 10
14 15 15 25 5 10 -9 14 -8 22 6 13 22 22 22 45 -4z m3747 -3133 c64 -31 135
-157 123 -219 -3 -15 -22 -53 -43 -85 -20 -31 -43 -72 -49 -90 -23 -65 -88
-108 -120 -81 -21 17 -17 26 15 32 42 9 87 57 95 101 4 20 18 58 32 84 35 65
22 124 -38 181 -24 22 -49 41 -56 41 -7 0 -11 -3 -8 -8 2 -4 11 -42 20 -85
l17 -79 -42 -83 c-42 -87 -70 -122 -88 -110 -17 10 -13 34 9 62 32 41 34 80 7
163 -22 71 -25 75 -50 72 -15 -1 -27 -1 -27 2 0 2 26 23 58 46 l57 42 -44 -6
c-48 -7 -100 -42 -121 -81 -14 -27 -30 -33 -30 -12 1 32 48 92 90 115 53 28
131 27 193 -2z m-295 -229 c21 -16 13 -52 -17 -81 l-30 -29 70 -83 c39 -46 66
-84 60 -84 -5 0 -12 4 -16 10 -3 5 -12 7 -19 4 -9 -3 -17 3 -21 16 -4 11 -18
33 -32 48 -14 15 -31 36 -39 46 -21 31 -23 17 -7 -67 14 -75 11 -107 -6 -78
-5 7 -12 36 -15 63 -4 27 -11 57 -16 66 -20 39 -38 90 -44 125 -6 34 -5 37 16
37 13 1 34 7 47 14 25 14 45 12 69 -7z m-258 2 c0 -6 -11 -20 -25 -31 -17 -13
-23 -24 -17 -32 11 -13 72 -262 72 -294 0 -25 -4 -26 -29 -12 -13 7 -21 26
-25 67 -6 52 -44 222 -53 232 -1 2 -12 -4 -23 -14 -19 -18 -20 -17 -20 1 0 27
9 36 60 67 50 29 60 32 60 16z m97 -93 c17 -33 36 -85 43 -115 13 -65 10 -143
-7 -148 -22 -8 -78 54 -91 101 -30 114 -27 230 6 224 9 -2 31 -30 49 -62z
m-266 44 c12 0 39 -55 39 -80 0 -31 -14 -24 -34 17 l-18 38 -19 -24 c-11 -14
-19 -36 -17 -50 3 -25 5 -26 59 -23 56 3 57 3 68 -29 14 -39 14 -149 1 -183
-5 -15 -17 -26 -27 -26 -22 0 -63 58 -63 88 0 29 17 28 26 0 21 -71 42 -50 43
45 1 52 -1 57 -21 59 -13 1 -32 2 -43 3 -11 1 -27 3 -36 4 -21 1 -52 76 -43
105 9 31 46 67 62 61 7 -3 18 -5 23 -5z m-121 -110 c0 -11 -76 -50 -97 -50
-18 0 -16 -13 6 -68 44 -105 62 -242 32 -242 -10 0 -31 46 -31 67 0 9 -6 24
-14 32 -19 23 -46 109 -46 148 0 31 -2 32 -30 27 -49 -10 -35 12 23 35 28 12
70 30 92 41 45 21 65 24 65 10z m-212 -140 c16 -52 40 -132 52 -178 21 -76 22
-85 7 -99 -13 -13 -19 -14 -31 -4 -14 12 -99 219 -112 274 -3 15 -13 27 -21
27 -14 0 -14 -3 0 -23 17 -26 52 -150 73 -257 17 -89 16 -87 5 -74 -13 12 -54
136 -86 261 l-27 101 22 22 c12 12 23 20 25 18 12 -14 55 -111 55 -125 0 -26
72 -203 82 -203 5 0 6 10 3 23 -4 12 -15 49 -25 82 -10 33 -30 99 -44 146 -14
48 -26 95 -26 105 0 36 19 -2 48 -96z m-210 58 c7 -7 12 -21 12 -31 0 -11 13
-47 29 -81 54 -114 82 -191 92 -259 6 -38 8 -71 4 -75 -8 -9 -24 17 -32 51 -3
15 -9 27 -14 27 -5 0 -9 12 -9 28 0 15 -7 36 -15 46 -11 15 -12 23 -3 33 18
23 1 26 -32 6 l-32 -18 7 -97 c4 -54 3 -98 -1 -98 -15 0 -32 51 -39 115 -4 33
-13 74 -19 90 -7 17 -19 66 -26 111 -12 75 -12 82 6 102 10 12 24 22 31 22 7
0 13 9 13 20 0 23 10 26 28 8z m-93 -223 c20 -63 37 -136 38 -162 2 -47 1 -48
-28 -51 -30 -3 -31 -1 -44 50 -44 186 -52 233 -42 255 21 46 38 26 76 -92z
m-117 50 c15 -32 15 -75 2 -95 -9 -13 -12 -12 -25 4 -8 11 -15 30 -15 43 0 37
-25 27 -50 -19 -19 -38 -21 -48 -11 -83 13 -48 62 -126 76 -122 10 3 26 88 19
96 -2 2 -13 -4 -23 -13 -22 -20 -41 -14 -41 14 0 13 5 17 19 13 12 -3 26 3 37
16 36 42 49 28 52 -58 3 -74 1 -79 -22 -95 -33 -21 -48 -20 -81 6 -41 32 -65
92 -65 169 0 61 3 68 36 107 42 49 75 55 92 17z m-218 5 c0 -5 -18 -19 -41
-31 -34 -17 -40 -24 -35 -42 3 -12 6 -28 6 -35 0 -10 7 -9 30 3 36 18 40 19
40 2 0 -8 -11 -19 -25 -25 -14 -6 -25 -16 -25 -22 0 -6 14 -56 30 -112 30
-102 36 -138 22 -138 -11 0 -39 70 -97 235 -38 113 -38 145 4 145 14 1 37 7
51 15 30 17 40 18 40 5z m-172 -67 c1 -16 12 -61 26 -100 15 -40 26 -85 26
-100 1 -16 8 -46 16 -68 27 -70 27 -75 11 -75 -9 0 -22 18 -30 43 -34 93 -77
238 -77 255 0 21 -9 34 -20 27 -9 -5 21 -160 43 -223 14 -41 14 -42 -7 -42
-22 0 -66 47 -66 72 -1 19 -40 67 -40 48 0 -25 26 -111 54 -179 14 -36 26 -66
26 -68 0 -3 -10 -3 -21 -1 -17 2 -28 22 -55 98 -69 201 -88 260 -83 264 3 3
20 7 39 8 32 3 37 -1 67 -52 l34 -55 -7 71 c-6 67 -5 72 17 88 33 23 46 20 47
-11z m-230 -131 c23 -57 69 -189 93 -270 7 -23 9 -45 6 -49 -11 -11 -16 0 -41
87 -27 91 -36 106 -62 96 -12 -5 -15 -14 -11 -34 3 -15 9 -55 13 -89 6 -54 4
-63 -9 -63 -11 0 -18 12 -22 38 -3 20 -20 97 -38 170 l-31 133 29 23 c16 13
34 22 40 20 5 -3 20 -30 33 -62z m-128 -12 c0 -5 -4 -12 -10 -15 -16 -10 -12
-38 15 -93 79 -165 48 -309 -44 -205 -42 47 -65 103 -43 103 5 0 17 -18 27
-39 10 -22 29 -50 42 -63 l25 -23 -7 45 c-5 39 -23 106 -54 210 -4 14 -18 27
-32 30 l-24 6 23 15 c12 7 22 18 22 24 0 5 14 11 30 12 17 1 30 -2 30 -7z"/>
<path d="M5190 5353 c0 -7 -9 -13 -19 -13 -11 0 -23 -4 -26 -10 -3 -5 -16 -10
-28 -11 -12 0 -41 -8 -65 -18 l-43 -17 43 -46 c30 -30 60 -51 96 -62 29 -10
52 -22 52 -28 0 -10 139 -4 210 8 42 8 97 49 76 57 -8 3 -23 3 -35 0 -24 -6
-163 45 -156 57 3 5 -3 11 -12 14 -10 3 -23 16 -28 28 -6 13 -19 25 -30 27
-11 2 -23 8 -27 15 -6 8 -8 7 -8 -1z"/>
</g>
</svg>
